HIERARCHY
ROOT HipCenter
{
    OFFSET 0.0 0.0 -0.0
    CHANNELS 6 Xposition Yposition Zposition Zrotation Xrotation Yrotation
    JOINT Spine
    {
        OFFSET 0.0 12.224725723266602 0.0
        CHANNELS 3 Zrotation Xrotation Yrotation
        JOINT ShoulderCenter
        {
            OFFSET 0.0 33.62454605102539 0.0
            CHANNELS 3 Zrotation Xrotation Yrotation
            JOINT LeftShoulder
            {
                OFFSET 17.760719299316406 0.0 0.0
                CHANNELS 3 Zrotation Xrotation Yrotation
                JOINT LeftElbow
                {
                    OFFSET 29.747974395751953 0.0 0.0
                    CHANNELS 3 Zrotation Xrotation Yrotation
                    JOINT LeftWrist
                    {
                        OFFSET 29.700307846069336 0.0 0.0
                        CHANNELS 3 Zrotation Xrotation Yrotation
                        JOINT LeftHand
                        {
                            OFFSET 4.489670753479004 0.0 0.0
                            CHANNELS 3 Zrotation Xrotation Yrotation
                            End Site
                            {
                                OFFSET 1.7958682775497437 0.0 0.0
                            }
                        }
                    }
                }
            }
            JOINT RightShoulder
            {
                OFFSET -17.760719299316406 0.0 0.0
                CHANNELS 3 Zrotation Xrotation Yrotation
                JOINT RightElbow
                {
                    OFFSET -29.747974395751953 0.0 0.0
                    CHANNELS 3 Zrotation Xrotation Yrotation
                    JOINT RightWrist
                    {
                        OFFSET -29.700307846069336 0.0 0.0
                        CHANNELS 3 Zrotation Xrotation Yrotation
                        JOINT RightHand
                        {
                            OFFSET -4.489670753479004 0.0 0.0
                            CHANNELS 3 Zrotation Xrotation Yrotation
                            End Site
                            {
                                OFFSET -1.7958682775497437 0.0 0.0
                            }
                        }
                    }
                }
            }
            End Site
            {
                OFFSET 0.0 13.44981861114502 0.0
            }
        }
    }
    JOINT LeftHip
    {
        OFFSET 13.27971076965332 0.0 0.0
        CHANNELS 3 Zrotation Xrotation Yrotation
        JOINT LeftKnee
        {
            OFFSET 0.0 -42.08383560180664 0.0
            CHANNELS 3 Zrotation Xrotation Yrotation
            JOINT LeftAnkle
            {
                OFFSET 0.0 -43.70518493652344 0.0
                CHANNELS 3 Zrotation Xrotation Yrotation
                JOINT LeftFoot
                {
                    OFFSET 0.0 -12.591739654541016 0.0
                    CHANNELS 3 Zrotation Xrotation Yrotation
                    End Site
                    {
                        OFFSET 0.0 0.0 5.036695957183838
                    }
                }
            }
        }
    }
    JOINT RightHip
    {
        OFFSET -13.27971076965332 0.0 0.0
        CHANNELS 3 Zrotation Xrotation Yrotation
        JOINT RightKnee
        {
            OFFSET 0.0 -42.08383560180664 0.0
            CHANNELS 3 Zrotation Xrotation Yrotation
            JOINT RightAnkle
            {
                OFFSET 0.0 -43.70518493652344 0.0
                CHANNELS 3 Zrotation Xrotation Yrotation
                JOINT RightFoot
                {
                    OFFSET 0.0 -12.591739654541016 0.0
                    CHANNELS 3 Zrotation Xrotation Yrotation
                    End Site
                    {
                        OFFSET 0.0 0.0 5.036695957183838
                    }
                }
            }
        }
    }
}
MOTION
Frames: 4
Frame Time: 0.03333333333333333
121.0 -25.200000762939453 17.899999618530273 15.172936862134778 0.46862302642150866 -95.08386728580996 0.6737487783868062 21.388441500490828 0.2767896527964764 -1.9466865233303067e-06 -1.225789607484729e-06 1.7145103298342503 104.73745896870568 -16.25105790591405 -154.37699381289414 2.941137506061812e-06 6.934336849493246e-07 78.63049127200391 -179.99999327357753 -71.05888812955635 -145.01144406664977 -9.93923337957349e-17 2.586273221513765e-34 -2.981770013872047e-16 -107.74012768444501 -14.400160021132354 151.99055308451858 1.9852164596558192e-06 -3.125713826919686e-08 -76.67877621773988 -6.542276590045009e-07 -1.1197031114429552 -31.902202040991885 -1.5902773407317584e-15 -1.987846675914698e-16 -2.758691436281349e-33 67.89079494850881 -75.76009962238425 110.94884721745254 55.653352087219965 35.322301713677696 -123.38734723516686 61.41035223982726 -41.82139739873833 120.0436275192316 -1.7655625192200634e-31 3.1805546814635164e-15 6.361109362927033e-15 -59.49186108584348 -80.42223685596812 -108.13101554696252 -57.598789933781795 39.15610153365435 121.39753220739999 -56.73495600891299 -29.048565060019566 -115.57790483723277 1.5902773407317582e-15 0.0 0.0
121.0 -25.099998474121094 18.0 14.71965583863614 0.4696031089339385 -94.0975665921734 0.6521079385005143 21.940056628393027 0.4853400388024463 1.1120551874286667e-06 -3.6307534499746474e-06 0.44834764912471975 104.80748423302204 -16.078272771472783 -154.4688924643333 6.661418534316354e-07 -3.013793206911128e-06 78.26274779395321 179.99999290931132 -74.10759818886707 -145.16911668195667 -3.7272125173400585e-16 5.718088450690589e-33 -1.758001904012061e-15 -106.91298253874021 -14.452129678131309 152.0254980076985 1.6580238273922232e-06 3.8268287580137203e-07 -76.52985339935182 2.1531090335027503e-06 -0.20423576311347244 -30.978041199357087 0.0 6.3611093629270335e-15 0.0 63.536811746707514 -76.67100832012498 105.4159919366287 54.9311053495348 36.184914446434654 -120.11599758623132 60.449155345702884 -43.0782636690641 118.3499685541651 -6.3611093629270335e-15 -1.7655625192200634e-31 3.1805546814635168e-15 -63.278470240885916 -79.32134339111263 -114.11943807860297 -59.11111780781055 37.503810477228306 123.90677684256976 -56.84988332091314 -28.73048597905323 -117.57352997637008 0.0 3.1805546814635168e-15 0.0
120.9000015258789 -25.099998474121094 18.099998474121094 15.2965363387429 0.4723495020250388 -94.87394033793007 0.40638997273894156 21.236313251715597 0.6542682121444421 1.924026105227506e-06 -7.70586193051286e-07 1.1466405542162765 104.39941068353433 -16.23309153318105 -154.54129402288288 7.844419889474788e-07 -4.556049880577044e-06 78.10655412744042 -179.99999756570168 -72.28591558192204 -145.23547456751646 -1.7393658414253603e-15 3.9756933518293955e-16 -4.969616689786744e-16 -107.34600392909329 -14.35988171849978 152.62473109792305 6.7764482367942485e-06 2.067684812459846e-08 -76.92403120409237 1.3452564673883756e-06 -0.8534606186954102 -32.28850986073043 0.0 0.0 -1.5902773407317584e-15 67.37093906862576 -76.38141447521113 110.18020533644702 55.88119422359285 35.2893682846335 -122.36360795053295 61.446995239198166 -42.50273561992845 120.2266800660589 8.827812596100317e-32 -3.1805546814635168e-15 3.1805546814635168e-15 -64.85657107359823 -80.03357634250757 -116.51950400852874 -59.08576907257419 36.65937261938216 123.88642945776917 -56.29391818151539 -29.176868654180065 -117.80151977748163 -3.975693351829396e-15 -1.1034765745125397e-31 3.1805546814635168e-15
120.9000015258789 -24.899999618530273 17.899999618530273 15.296532737551777 1.4167836376925402 -95.36245809567596 0.7937914259650799 21.296666650151998 0.755601952302557 3.650384844641776e-06 -1.9195024574255713e-06 1.5769273214276436 104.52086525117976 -16.34193983361997 -154.27606122619127 -5.127508446638108e-06 3.1018722802486905e-07 77.94719835516406 179.99999827647824 -72.31418288419776 -145.00734493435334 1.2424041724466863e-15 7.951386703658792e-16 -1.7890620083232284e-15 -106.8957526283284 -14.135201496931598 152.45288776532186 2.5002718198992135e-06 -3.0894919129787846e-07 -76.66219259488192 6.005184889348162e-07 -0.05863283770428549 -31.232003062638046 -1.5902773407317588e-15 1.987846675914699e-16 -1.5902773407317588e-15 67.80863862790345 -75.64462353491756 109.91293183568517 55.61590695792601 34.93508941663424 -123.43719790311198 61.72258013612259 -41.631839213171425 121.03898913508289 6.361109362927033e-15 1.7655625192200634e-31 3.1805546814635164e-15 -58.53395880012704 -80.40637747720957 -109.3970989339939 -57.73056036666 37.99545508926713 121.61207755026561 -56.18779968169335 -29.538811501096397 -116.23912830955175 1.5902773407317582e-15 4.4139062980501586e-32 3.1805546814635164e-15
